# xmcd
#
# Track frame offsets:
# 150
# 19127
# 39532
# 59497
# 76962
# 104372
# 125847
# 146515
# 166665
# 182602
# 199952
# 216025
# 231552
#
# Disc length: 3350 seconds
#
#
# Revision: 0
# Processed by: cddbd v1.5.1PL0 Copyright (c) Steve Scherf et al.
# Submitted via: FreeRIP 2.942 
#
DISCID=ba0d140d
DTITLE=Lynn August - Blueshouse
DYEAR=1900
DGENRE=Blues
TTITLE0=Matlin
TTITLE1=Going Back To Big Mamou
TTITLE2=Zydeco Bogaloo
TTITLE3=That´s Where It´s At
TTITLE4=Miquen
TTITLE5=Amazon Annie
TTITLE6=Woke Up This Morning
TTITLE7=Hey Mama
TTITLE8=Mosquito
TTITLE9=Tu Le Ton Son Ton
TTITLE10=Lemonade
TTITLE11=Creole People
TTITLE12=Trust In The Lord
EXTD=Zydeco
EXTT0=
EXTT1=
EXTT2=
EXTT3=
EXTT4=
EXTT5=
EXTT6=
EXTT7=
EXTT8=
EXTT9=
EXTT10=
EXTT11=
EXTT12=
PLAYORDER=
